<svg id="visual" viewBox="0 0 960 540" width="960" height="540" xmlns="http://www.w3.org/2000/svg" xmlns:xlink="http://www.w3.org/1999/xlink" version="1.1"><rect x="0" y="0" width="960" height="540" fill="#FFFFFF"></rect><defs><linearGradient id="grad1_0" x1="43.8%" y1="100%" x2="100%" y2="0%"><stop offset="14.444444444444446%" stop-color="#38e54d" stop-opacity="1"></stop><stop offset="85.55555555555554%" stop-color="#38e54d" stop-opacity="1"></stop></linearGradient></defs><defs><linearGradient id="grad1_1" x1="43.8%" y1="100%" x2="100%" y2="0%"><stop offset="14.444444444444446%" stop-color="#38e54d" stop-opacity="1"></stop><stop offset="85.55555555555554%" stop-color="#aff4a8" stop-opacity="1"></stop></linearGradient></defs><defs><linearGradient id="grad1_2" x1="43.8%" y1="100%" x2="100%" y2="0%"><stop offset="14.444444444444446%" stop-color="#ffffff" stop-opacity="1"></stop><stop offset="85.55555555555554%" stop-color="#aff4a8" stop-opacity="1"></stop></linearGradient></defs><defs><linearGradient id="grad2_0" x1="0%" y1="100%" x2="56.3%" y2="0%"><stop offset="14.444444444444446%" stop-color="#38e54d" stop-opacity="1"></stop><stop offset="85.55555555555554%" stop-color="#38e54d" stop-opacity="1"></stop></linearGradient></defs><defs><linearGradient id="grad2_1" x1="0%" y1="100%" x2="56.3%" y2="0%"><stop offset="14.444444444444446%" stop-color="#aff4a8" stop-opacity="1"></stop><stop offset="85.55555555555554%" stop-color="#38e54d" stop-opacity="1"></stop></linearGradient></defs><defs><linearGradient id="grad2_2" x1="0%" y1="100%" x2="56.3%" y2="0%"><stop offset="14.444444444444446%" stop-color="#aff4a8" stop-opacity="1"></stop><stop offset="85.55555555555554%" stop-color="#ffffff" stop-opacity="1"></stop></linearGradient></defs><g transform="translate(960, 540)"><path d="M-459 0C-411.5 -38.4 -364.1 -76.8 -352.9 -146.2C-341.8 -215.5 -367 -315.8 -324.6 -324.6C-282.1 -333.3 -172.1 -250.6 -106.8 -257.8C-41.4 -264.9 -20.7 -362 0 -459L0 0Z" fill="#d8fad4"></path><path d="M-306 0C-274.4 -25.6 -242.7 -51.2 -235.3 -97.5C-227.9 -143.7 -244.7 -210.5 -216.4 -216.4C-188.1 -222.2 -114.8 -167.1 -71.2 -171.8C-27.6 -176.6 -13.8 -241.3 0 -306L0 0Z" fill="#7fed7d"></path><path d="M-153 0C-137.2 -12.8 -121.4 -25.6 -117.6 -48.7C-113.9 -71.8 -122.3 -105.3 -108.2 -108.2C-94 -111.1 -57.4 -83.5 -35.6 -85.9C-13.8 -88.3 -6.9 -120.7 0 -153L0 0Z" fill="#38e54d"></path></g><g transform="translate(0, 0)"><path d="M459 0C458.5 65 458.1 130 424.1 175.7C390 221.3 322.4 247.7 271.5 271.5C220.6 295.3 186.4 316.6 143.9 347.4C101.4 378.2 50.7 418.6 0 459L0 0Z" fill="#d8fad4"></path><path d="M306 0C305.7 43.3 305.4 86.6 282.7 117.1C260 147.6 215 165.1 181 181C147.1 196.9 124.2 211 95.9 231.6C67.6 252.1 33.8 279.1 0 306L0 0Z" fill="#7fed7d"></path><path d="M153 0C152.8 21.7 152.7 43.3 141.4 58.6C130 73.8 107.5 82.6 90.5 90.5C73.5 98.4 62.1 105.5 48 115.8C33.8 126.1 16.9 139.5 0 153L0 0Z" fill="#38e54d"></path></g></svg>