<svg width="913.9400146484375px" height="87.2px" xmlns="http://www.w3.org/2000/svg" viewBox="-206.97000732421873 31.4 913.9400146484375 87.2" style="background: rgba(0, 0, 0, 0);" preserveAspectRatio="xMidYMid"><defs><filter id="editing-extrusion" x="-100%" y="-100%" width="300%" height="300%"><feFlood result="color1" flood-color="#444"></feFlood><feConvolveMatrix order="8,8" divisor="1" kernelMatrix="1 0 0 0 0 0 0 0 0 1 0 0 0 0 0 0 0 0 1 0 0 0 0 0 0 0 0 1 0 0 0 0 0 0 0 0 1 0 0 0 0 0 0 0 0 1 0 0 0 0 0 0 0 0 1 0 0 0 0 0 0 0 0 1" in="SourceAlpha" result="extrude"></feConvolveMatrix><feComposite in="color1" in2="extrude" result="comp-extrude" operator="in"></feComposite><feOffset dx="4" dy="4" in="comp-extrude" result="offset-extrude"></feOffset><feMerge><feMergeNode in="offset-extrude"></feMergeNode><feMergeNode in="SourceGraphic"></feMergeNode></feMerge></filter></defs><g filter="url(#editing-extrusion)"><g transform="translate(-78.3899673819542, 92.98500442504883)"><path d="M4.96-24.48L14.82-24.48L14.82-24.48Q18.70-24.48 20.33-22.78L20.33-22.78L20.33-22.78Q21.56-21.49 21.56-19.52L21.56-19.52L21.56-19.52Q21.56-18.84 21.42-18.09L21.42-18.09L20.94-15.44L20.94-15.44Q20.54-13.23 19.53-11.87L19.53-11.87L19.53-11.87Q18.53-10.51 17.31-9.93L17.31-9.93L20.40 0L13.53 0L10.68-9.15L8.57-9.15L7.17 0L0.65 0L4.96-24.48ZM12.68-19.18L12.68-19.18L10.13-19.18L9.25-13.26L11.63-13.26L11.63-13.26Q13.43-13.26 14.21-14.13L14.21-14.13L14.21-14.13Q14.99-14.99 14.99-16.42L14.99-16.42L14.99-16.42Q14.99-19.18 12.68-19.18ZM39.27-5.24L39.27-5.24L39.27-5.24Q39.27-4.35 40.17-4.35L40.17-4.35L40.17-4.35Q41.07-4.35 41.68-4.69L41.68-4.69L41.51-0.85L41.51-0.85Q39.88 0.48 37.84 0.48L37.84 0.48L37.84 0.48Q34 0.48 33.66-2.48L33.66-2.48L33.66-2.48Q31.62 0.48 28.17 0.48L28.17 0.48L28.17 0.48Q24.72 0.48 23.70-1.09L23.70-1.09L23.70-1.09Q23.02-2.07 23.02-3.33L23.02-3.33L23.02-3.33Q23.02-4.59 23.22-5.64L23.22-5.64L25.13-16.35L30.91-16.35L29.31-7.31L29.31-7.31Q29.21-6.70 29.21-6.09L29.21-6.09L29.21-6.09Q29.21-4.45 31.04-4.45L31.04-4.45L31.04-4.45Q32.57-4.45 33.49-5.51L33.49-5.51L35.43-16.35L41.21-16.35L39.30-5.64L39.30-5.64Q39.27-5.44 39.27-5.24ZM60.28-12.89L60.28-12.89L60.28-12.89Q60.28-11.73 59.89-10.64L59.89-10.64L59.89-10.64Q59.50-9.55 59.13-9.04L59.13-9.04L58.75-8.57L53.62-8.57L53.62-8.57Q54.47-9.35 54.47-10.51L54.47-10.51L54.47-10.51Q54.47-11.12 54.08-11.51L54.08-11.51L54.08-11.51Q53.69-11.90 53.01-11.90L53.01-11.90L53.01-11.90Q51.85-11.90 51-10.74L51-10.74L49.10 0L43.32 0L46.21-16.35L51.58-16.35L51.17-14.08L51.17-14.08Q53.11-16.83 55.86-16.83L55.86-16.83L55.86-16.83Q58.07-16.83 59.18-15.78L59.18-15.78L59.18-15.78Q60.28-14.72 60.28-12.89ZM77.21-5.24L77.21-5.24L77.21-5.24Q77.21-4.35 78.11-4.35L78.11-4.35L78.11-4.35Q79.02-4.35 79.63-4.69L79.63-4.69L79.46-0.85L79.46-0.85Q77.83 0.48 75.79 0.48L75.79 0.48L75.79 0.48Q72.05 0.48 71.64-2.24L71.64-2.24L71.64-2.24Q69.94 0.48 66.64 0.48L66.64 0.48L66.64 0.48Q61.06 0.48 61.06-4.32L61.06-4.32L61.06-4.32Q61.06-5.13 61.23-6.12L61.23-6.12L61.95-10.10L61.95-10.10Q62.49-13.16 64.45-14.98L64.45-14.98L64.45-14.98Q66.40-16.80 69.55-16.80L69.55-16.80L69.55-16.80Q72.69-16.80 73.81-15.33L73.81-15.33L73.98-16.35L79.15-16.35L77.25-5.64L77.25-5.64Q77.21-5.44 77.21-5.24ZM67.59-9.42L67.15-6.87L67.15-6.87Q67.08-6.56 67.08-6.02L67.08-6.02L67.08-6.02Q67.08-5.47 67.59-4.95L67.59-4.95L67.59-4.95Q68.10-4.42 69.31-4.42L69.31-4.42L69.31-4.42Q70.52-4.42 71.40-5.37L71.40-5.37L72.42-11.08L72.42-11.08Q72.05-11.93 70.65-11.93L70.65-11.93L70.65-11.93Q68.03-11.93 67.59-9.42L67.59-9.42ZM88.06-5.24L88.06-5.24L88.06-5.24Q88.06-4.35 88.96-4.35L88.96-4.35L88.96-4.35Q89.86-4.35 90.47-4.69L90.47-4.69L90.30-0.85L90.30-0.85Q88.67 0.48 86.63 0.48L86.63 0.48L86.63 0.48Q83.54 0.48 82.62-0.95L82.62-0.95L82.62-0.95Q82.04-1.87 82.04-2.96L82.04-2.96L82.04-2.96Q82.04-4.05 82.18-4.86L82.18-4.86L85.88-25.81L91.66-25.81L88.09-5.64L88.09-5.64Q88.06-5.44 88.06-5.24ZM117.71-24.48L123.83-24.48L119.54 0L113.39 0L114.95-8.84L108.32-8.84L106.79 0L100.64 0L104.96-24.48L111.08-24.48L109.24-14.14L115.87-14.14L117.71-24.48ZM131.31 0.48L131.31 0.48L131.31 0.48Q124.24 0.48 124.24-4.42L124.24-4.42L124.24-4.42Q124.24-5.10 124.37-5.88L124.37-5.88L125.09-10.10L125.09-10.10Q125.66-13.36 128.09-15.11L128.09-15.11L128.09-15.11Q130.53-16.86 134.54-16.86L134.54-16.86L134.54-16.86Q141.37-16.86 141.37-11.70L141.37-11.70L141.37-11.70Q141.37-10.95 141.24-10.06L141.24-10.06L140.83-7.65L130.46-7.65L130.32-6.87L130.32-6.87Q130.25-6.46 130.25-6.12L130.25-6.12L130.25-6.12Q130.25-4.25 132.46-4.25L132.46-4.25L132.46-4.25Q133.28-4.25 133.86-4.76L133.86-4.76L133.86-4.76Q134.44-5.27 134.54-5.95L134.54-5.95L140.18-5.88L140.18-5.88Q139.06 0.48 131.31 0.48ZM130.80-9.72L135.39-9.72L135.39-9.72Q135.52-10.30 135.52-10.79L135.52-10.79L135.52-10.79Q135.52-11.29 135.08-11.80L135.08-11.80L135.08-11.80Q134.64-12.31 133.67-12.31L133.67-12.31L133.67-12.31Q132.70-12.31 131.90-11.66L131.90-11.66L131.90-11.66Q131.10-11.02 130.80-9.72L130.80-9.72ZM159.15-5.24L159.15-5.24L159.15-5.24Q159.15-4.35 160.06-4.35L160.06-4.35L160.06-4.35Q160.96-4.35 161.57-4.69L161.57-4.69L161.40-0.85L161.40-0.85Q159.77 0.48 157.73 0.48L157.73 0.48L157.73 0.48Q153.99 0.48 153.58-2.24L153.58-2.24L153.58-2.24Q151.88 0.48 148.58 0.48L148.58 0.48L148.58 0.48Q143.00 0.48 143.00-4.32L143.00-4.32L143.00-4.32Q143.00-5.13 143.17-6.12L143.17-6.12L143.89-10.10L143.89-10.10Q144.43-13.16 146.39-14.98L146.39-14.98L146.39-14.98Q148.34-16.80 151.49-16.80L151.49-16.80L151.49-16.80Q154.63-16.80 155.75-15.33L155.75-15.33L155.92-16.35L161.09-16.35L159.19-5.64L159.19-5.64Q159.15-5.44 159.15-5.24ZM149.53-9.42L149.09-6.87L149.09-6.87Q149.02-6.56 149.02-6.02L149.02-6.02L149.02-6.02Q149.02-5.47 149.53-4.95L149.53-4.95L149.53-4.95Q150.04-4.42 151.25-4.42L151.25-4.42L151.25-4.42Q152.46-4.42 153.34-5.37L153.34-5.37L154.36-11.08L154.36-11.08Q153.99-11.93 152.59-11.93L152.59-11.93L152.59-11.93Q149.97-11.93 149.53-9.42L149.53-9.42ZM170-5.24L170-5.24L170-5.24Q170-4.35 170.90-4.35L170.90-4.35L170.90-4.35Q171.80-4.35 172.41-4.69L172.41-4.69L172.24-0.85L172.24-0.85Q170.61 0.48 168.57 0.48L168.57 0.48L168.57 0.48Q165.48 0.48 164.56-0.95L164.56-0.95L164.56-0.95Q163.98-1.87 163.98-2.96L163.98-2.96L163.98-2.96Q163.98-4.05 164.12-4.86L164.12-4.86L167.82-25.81L173.60-25.81L170.03-5.64L170.03-5.64Q170-5.44 170-5.24ZM181.80 0.48L181.80 0.48L181.80 0.48Q177.85 0.48 176.12-1.29L176.12-1.29L176.12-1.29Q174.83-2.58 174.83-4.76L174.83-4.76L174.83-4.76Q174.83-5.47 174.96-6.29L174.96-6.29L177.28-19.45L183.50-22.03L182.51-16.35L191.90-16.35L191.05-11.56L181.66-11.56L180.98-7.72L180.98-7.72Q180.85-7.07 180.85-6.56L180.85-6.56L180.85-6.56Q180.85-4.42 182.89-4.42L182.89-4.42L182.89-4.42Q183.97-4.42 184.71-5.34L184.71-5.34L184.71-5.34Q185.44-6.26 185.71-7.79L185.71-7.79L191.35-7.79L191.35-7.79Q189.92 0.48 181.80 0.48ZM210.83-4.35L210.83-4.35L210.83-4.35Q211.62-4.35 212.23-4.69L212.23-4.69L212.06-0.85L212.06-0.85Q210.46 0.48 208.42 0.48L208.42 0.48L208.42 0.48Q203.80 0.48 203.80-3.40L203.80-3.40L203.80-3.40Q203.80-4.08 203.93-4.86L203.93-4.86L204.68-9.04L204.68-9.04Q204.78-9.66 204.78-10.27L204.78-10.27L204.78-10.27Q204.78-11.90 203.06-11.90L203.06-11.90L203.06-11.90Q201.35-11.90 200.40-10.74L200.40-10.74L198.49 0L192.71 0L197.27-25.81L203.05-25.81L201.11-14.82L201.11-14.82Q202.98-16.83 205.80-16.83L205.80-16.83L205.80-16.83Q209.24-16.83 210.26-15.30L210.26-15.30L210.26-15.30Q210.97-14.28 210.97-13.02L210.97-13.02L210.97-13.02Q210.97-11.76 210.77-10.71L210.77-10.71L209.85-5.64L209.85-5.64Q209.81-5.44 209.81-5.27L209.81-5.27L209.81-5.27Q209.81-4.35 210.83-4.35ZM239.17-1.79L239.17-1.79L239.17-1.79Q236.47 0.48 231.54 0.48L231.54 0.48L231.54 0.48Q226.61 0.48 224.71-1.80L224.71-1.80L224.71-1.80Q223.35-3.37 223.35-6.12L223.35-6.12L223.35-6.12Q223.35-7.34 223.62-8.81L223.62-8.81L226.37-24.48L232.49-24.48L229.74-8.94L229.74-8.94Q229.60-8.09 229.60-7.17L229.60-7.17L229.60-7.17Q229.60-4.79 232.46-4.79L232.46-4.79L232.46-4.79Q234.16-4.79 235.18-5.68L235.18-5.68L235.18-5.68Q236.20-6.56 236.61-8.94L236.61-8.94L239.36-24.48L245.48-24.48L242.73-8.81L242.73-8.81Q241.88-4.05 239.17-1.79ZM256.67-10.44L256.67-10.44L256.67-10.44Q256.67-11.90 255.25-11.90L255.25-11.90L255.25-11.90Q253.84-11.90 252.93-10.85L252.93-10.85L251.02 0L245.24 0L248.13-16.35L253.50-16.35L253.13-14.35L253.13-14.35Q255.14-16.83 258.20-16.83L258.20-16.83L258.20-16.83Q261.26-16.83 262.17-15.33L262.17-15.33L262.17-15.33Q262.75-14.38 262.75-13.16L262.75-13.16L262.75-13.16Q262.75-11.93 262.58-10.88L262.58-10.88L261.66-5.64L261.66-5.64Q261.63-5.44 261.63-5.27L261.63-5.27L261.63-5.27Q261.63-4.35 262.65-4.35L262.65-4.35L262.65-4.35Q263.43-4.35 264.04-4.69L264.04-4.69L263.87-0.85L263.87-0.85Q262.28 0.48 260.24 0.48L260.24 0.48L260.24 0.48Q255.61 0.48 255.61-3.40L255.61-3.40L255.61-3.40Q255.61-4.08 255.75-4.86L255.75-4.86L256.56-9.38L256.56-9.38Q256.67-10.00 256.67-10.44ZM273.22-4.35L273.22-4.35L273.22-4.35Q274.01-4.35 274.62-4.69L274.62-4.69L274.45-0.85L274.45-0.85Q272.85 0.48 270.81 0.48L270.81 0.48L270.81 0.48Q267.72 0.48 266.80-0.95L266.80-0.95L266.80-0.95Q266.19-1.90 266.19-2.98L266.19-2.98L266.19-2.98Q266.19-4.05 266.32-4.86L266.32-4.86L268.36-16.35L274.14-16.35L272.24-5.64L272.24-5.64Q272.20-5.44 272.20-5.27L272.20-5.27L272.20-5.27Q272.20-4.35 273.22-4.35ZM269.04-21.90L269.04-21.90L269.04-21.90Q269.04-24.07 270.01-25.08L270.01-25.08L270.01-25.08Q270.98-26.08 273.02-26.08L273.02-26.08L273.02-26.08Q275.88-26.08 275.88-23.56L275.88-23.56L275.88-23.56Q275.88-21.42 274.91-20.43L274.91-20.43L274.91-20.43Q273.94-19.45 271.86-19.45L271.86-19.45L271.86-19.45Q269.04-19.45 269.04-21.90ZM283.97 0.48L283.97 0.48L283.97 0.48Q280.02 0.48 278.29-1.29L278.29-1.29L278.29-1.29Q277.00-2.58 277.00-4.76L277.00-4.76L277.00-4.76Q277.00-5.47 277.13-6.29L277.13-6.29L279.45-19.45L285.67-22.03L284.68-16.35L294.07-16.35L293.22-11.56L283.83-11.56L283.15-7.72L283.15-7.72Q283.02-7.07 283.02-6.56L283.02-6.56L283.02-6.56Q283.02-4.42 285.06-4.42L285.06-4.42L285.06-4.42Q286.14-4.42 286.88-5.34L286.88-5.34L286.88-5.34Q287.61-6.26 287.88-7.79L287.88-7.79L293.52-7.79L293.52-7.79Q292.09 0.48 283.97 0.48ZM307.73-24.48L314.13-24.48L317.76-12.75L325.58-24.48L332.01-24.48L327.69 0L321.54 0L323.99-13.80L318.75-5.58L314.30-5.58L311.98-13.80L309.54 0L303.42 0L307.73-24.48ZM348.57-5.24L348.57-5.24L348.57-5.24Q348.57-4.35 349.47-4.35L349.47-4.35L349.47-4.35Q350.37-4.35 350.98-4.69L350.98-4.69L350.81-0.85L350.81-0.85Q349.18 0.48 347.14 0.48L347.14 0.48L347.14 0.48Q343.40 0.48 342.99-2.24L342.99-2.24L342.99-2.24Q341.29 0.48 337.99 0.48L337.99 0.48L337.99 0.48Q332.42 0.48 332.42-4.32L332.42-4.32L332.42-4.32Q332.42-5.13 332.59-6.12L332.59-6.12L333.30-10.10L333.30-10.10Q333.85-13.16 335.80-14.98L335.80-14.98L335.80-14.98Q337.76-16.80 340.90-16.80L340.90-16.80L340.90-16.80Q344.05-16.80 345.17-15.33L345.17-15.33L345.34-16.35L350.51-16.35L348.60-5.64L348.60-5.64Q348.57-5.44 348.57-5.24ZM338.95-9.42L338.50-6.87L338.50-6.87Q338.44-6.56 338.44-6.02L338.44-6.02L338.44-6.02Q338.44-5.47 338.95-4.95L338.95-4.95L338.95-4.95Q339.46-4.42 340.66-4.42L340.66-4.42L340.66-4.42Q341.87-4.42 342.75-5.37L342.75-5.37L343.77-11.08L343.77-11.08Q343.40-11.93 342.01-11.93L342.01-11.93L342.01-11.93Q339.39-11.93 338.95-9.42L338.95-9.42ZM364.04-10.44L364.04-10.44L364.04-10.44Q364.04-11.90 362.63-11.90L362.63-11.90L362.63-11.90Q361.22-11.90 360.30-10.85L360.30-10.85L358.39 0L352.61 0L355.50-16.35L360.88-16.35L360.50-14.35L360.50-14.35Q362.51-16.83 365.57-16.83L365.57-16.83L365.57-16.83Q368.63-16.83 369.55-15.33L369.55-15.33L369.55-15.33Q370.12-14.38 370.12-13.16L370.12-13.16L370.12-13.16Q370.12-11.93 369.95-10.88L369.95-10.88L369.04-5.64L369.04-5.64Q369.00-5.44 369.00-5.27L369.00-5.27L369.00-5.27Q369.00-4.35 370.02-4.35L370.02-4.35L370.02-4.35Q370.80-4.35 371.42-4.69L371.42-4.69L371.25-0.85L371.25-0.85Q369.65 0.48 367.61 0.48L367.61 0.48L367.61 0.48Q362.98 0.48 362.98-3.40L362.98-3.40L362.98-3.40Q362.98-4.08 363.12-4.86L363.12-4.86L363.94-9.38L363.94-9.38Q364.04-10.00 364.04-10.44ZM389.37-5.24L389.37-5.24L389.37-5.24Q389.37-4.35 390.27-4.35L390.27-4.35L390.27-4.35Q391.17-4.35 391.78-4.69L391.78-4.69L391.61-0.85L391.61-0.85Q389.98 0.48 387.94 0.48L387.94 0.48L387.94 0.48Q384.20 0.48 383.79-2.24L383.79-2.24L383.79-2.24Q382.09 0.48 378.79 0.48L378.79 0.48L378.79 0.48Q373.22 0.48 373.22-4.32L373.22-4.32L373.22-4.32Q373.22-5.13 373.39-6.12L373.39-6.12L374.10-10.10L374.10-10.10Q374.65-13.16 376.60-14.98L376.60-14.98L376.60-14.98Q378.56-16.80 381.70-16.80L381.70-16.80L381.70-16.80Q384.85-16.80 385.97-15.33L385.97-15.33L386.14-16.35L391.31-16.35L389.40-5.64L389.40-5.64Q389.37-5.44 389.37-5.24ZM379.75-9.42L379.30-6.87L379.30-6.87Q379.24-6.56 379.24-6.02L379.24-6.02L379.24-6.02Q379.24-5.47 379.75-4.95L379.75-4.95L379.75-4.95Q380.26-4.42 381.46-4.42L381.46-4.42L381.46-4.42Q382.67-4.42 383.55-5.37L383.55-5.37L384.57-11.08L384.57-11.08Q384.20-11.93 382.81-11.93L382.81-11.93L382.81-11.93Q380.19-11.93 379.75-9.42L379.75-9.42ZM408.85 0.54L408.85 0.54Q408.10 4.86 405.43 7.38L405.43 7.38L405.43 7.38Q402.76 9.89 399.33 9.89L399.33 9.89L399.33 9.89Q395.90 9.89 394.38 8.64L394.38 8.64L394.38 8.64Q392.87 7.38 392.87 5.34L392.87 5.34L392.87 5.34Q392.87 2.35 396.68 0.14L396.68 0.14L396.68 0.14Q393.79-0.78 393.79-4.25L393.79-4.25L393.79-4.25Q393.79-5.10 393.96-6.12L393.96-6.12L394.64-10.10L394.64-10.10Q395.18-13.16 397.15-14.98L397.15-14.98L397.15-14.98Q399.13-16.80 402.27-16.80L402.27-16.80L402.27-16.80Q405.42-16.80 406.57-15.27L406.57-15.27L406.78-16.35L411.84-16.35L408.85 0.54ZM400.32-9.42L399.87-6.87L399.87-6.87Q399.81-6.56 399.81-6.02L399.81-6.02L399.81-6.02Q399.81-5.47 400.32-4.95L400.32-4.95L400.32-4.95Q400.83-4.42 402.03-4.42L402.03-4.42L402.03-4.42Q403.24-4.42 404.12-5.37L404.12-5.37L405.14-11.08L405.14-11.08Q404.67-11.93 403.34-11.93L403.34-11.93L403.34-11.93Q402.02-11.93 401.27-11.25L401.27-11.25L401.27-11.25Q400.52-10.57 400.32-9.42L400.32-9.42ZM400.11 5.03L400.11 5.03L400.11 5.03Q402.32 5.03 403.00 1.02L403.00 1.02L403.34-0.95L403.34-0.95Q398.62 1.26 398.62 3.50L398.62 3.50L398.62 3.50Q398.62 4.18 399.01 4.61L399.01 4.61L399.01 4.61Q399.40 5.03 400.11 5.03ZM419.70 0.48L419.70 0.48L419.70 0.48Q412.62 0.48 412.62-4.42L412.62-4.42L412.62-4.42Q412.62-5.10 412.76-5.88L412.76-5.88L413.47-10.10L413.47-10.10Q414.05-13.36 416.48-15.11L416.48-15.11L416.48-15.11Q418.91-16.86 422.93-16.86L422.93-16.86L422.93-16.86Q429.76-16.86 429.76-11.70L429.76-11.70L429.76-11.70Q429.76-10.95 429.62-10.06L429.62-10.06L429.22-7.65L418.85-7.65L418.71-6.87L418.71-6.87Q418.64-6.46 418.64-6.12L418.64-6.12L418.64-6.12Q418.64-4.25 420.85-4.25L420.85-4.25L420.85-4.25Q421.67-4.25 422.25-4.76L422.25-4.76L422.25-4.76Q422.82-5.27 422.93-5.95L422.93-5.95L428.57-5.88L428.57-5.88Q427.45 0.48 419.70 0.48ZM419.19-9.72L423.78-9.72L423.78-9.72Q423.91-10.30 423.91-10.79L423.91-10.79L423.91-10.79Q423.91-11.29 423.47-11.80L423.47-11.80L423.47-11.80Q423.03-12.31 422.06-12.31L422.06-12.31L422.06-12.31Q421.09-12.31 420.29-11.66L420.29-11.66L420.29-11.66Q419.49-11.02 419.19-9.72L419.19-9.72ZM459.75-4.35L459.75-4.35L459.75-4.35Q460.53-4.35 461.14-4.69L461.14-4.69L460.97-0.85L460.97-0.85Q459.37 0.48 457.33 0.48L457.33 0.48L457.33 0.48Q452.71 0.48 452.71-3.40L452.71-3.40L452.71-3.40Q452.71-4.08 452.85-4.86L452.85-4.86L453.56-9.04L453.56-9.04Q453.66-9.66 453.66-10.27L453.66-10.27L453.66-10.27Q453.66-11.90 451.88-11.90L451.88-11.90L451.88-11.90Q450.09-11.90 449.07-10.51L449.07-10.51L447.24 0L441.46 0L443.05-9.04L443.05-9.04Q443.16-9.66 443.16-10.27L443.16-10.27L443.16-10.27Q443.16-11.90 441.32-11.90L441.32-11.90L441.32-11.90Q439.86-11.90 438.80-10.78L438.80-10.78L436.90 0L431.12 0L434.01-16.35L439.38-16.35L439.01-14.31L439.01-14.31Q441.05-16.83 444.18-16.83L444.18-16.83L444.18-16.83Q448.60-16.83 449.21-13.91L449.21-13.91L449.21-13.91Q451.25-16.83 454.67-16.83L454.67-16.83L454.67-16.83Q458.08-16.83 459.10-15.30L459.10-15.30L459.10-15.30Q459.78-14.25 459.78-12.99L459.78-12.99L459.78-12.99Q459.78-11.73 459.61-10.71L459.61-10.71L458.76-5.64L458.76-5.64Q458.73-5.44 458.73-5.27L458.73-5.27L458.73-5.27Q458.73-4.35 459.75-4.35ZM470.02 0.48L470.02 0.48L470.02 0.48Q462.94 0.48 462.94-4.42L462.94-4.42L462.94-4.42Q462.94-5.10 463.08-5.88L463.08-5.88L463.79-10.10L463.79-10.10Q464.37-13.36 466.80-15.11L466.80-15.11L466.80-15.11Q469.23-16.86 473.25-16.86L473.25-16.86L473.25-16.86Q480.08-16.86 480.08-11.70L480.08-11.70L480.08-11.70Q480.08-10.95 479.94-10.06L479.94-10.06L479.54-7.65L469.17-7.65L469.03-6.87L469.03-6.87Q468.96-6.46 468.96-6.12L468.96-6.12L468.96-6.12Q468.96-4.25 471.17-4.25L471.17-4.25L471.17-4.25Q471.99-4.25 472.57-4.76L472.57-4.76L472.57-4.76Q473.14-5.27 473.25-5.95L473.25-5.95L478.89-5.88L478.89-5.88Q477.77 0.48 470.02 0.48ZM469.51-9.72L474.10-9.72L474.10-9.72Q474.23-10.30 474.23-10.79L474.23-10.79L474.23-10.79Q474.23-11.29 473.79-11.80L473.79-11.80L473.79-11.80Q473.35-12.31 472.38-12.31L472.38-12.31L472.38-12.31Q471.41-12.31 470.61-11.66L470.61-11.66L470.61-11.66Q469.81-11.02 469.51-9.72L469.51-9.72ZM492.86-10.44L492.86-10.44L492.86-10.44Q492.86-11.90 491.45-11.90L491.45-11.90L491.45-11.90Q490.04-11.90 489.12-10.85L489.12-10.85L487.22 0L481.44 0L484.33-16.35L489.70-16.35L489.33-14.35L489.33-14.35Q491.33-16.83 494.39-16.83L494.39-16.83L494.39-16.83Q497.45-16.83 498.37-15.33L498.37-15.33L498.37-15.33Q498.95-14.38 498.95-13.16L498.95-13.16L498.95-13.16Q498.95-11.93 498.78-10.88L498.78-10.88L497.86-5.64L497.86-5.64Q497.83-5.44 497.83-5.27L497.83-5.27L497.83-5.27Q497.83-4.35 498.85-4.35L498.85-4.35L498.85-4.35Q499.63-4.35 500.24-4.69L500.24-4.69L500.07-0.85L500.07-0.85Q498.47 0.48 496.43 0.48L496.43 0.48L496.43 0.48Q491.81 0.48 491.81-3.40L491.81-3.40L491.81-3.40Q491.81-4.08 491.95-4.86L491.95-4.86L492.76-9.38L492.76-9.38Q492.86-10.00 492.86-10.44ZM509.52 0.48L509.52 0.48L509.52 0.48Q505.58 0.48 503.85-1.29L503.85-1.29L503.85-1.29Q502.55-2.58 502.55-4.76L502.55-4.76L502.55-4.76Q502.55-5.47 502.69-6.29L502.69-6.29L505.00-19.45L511.22-22.03L510.24-16.35L519.62-16.35L518.77-11.56L509.39-11.56L508.71-7.72L508.71-7.72Q508.57-7.07 508.57-6.56L508.57-6.56L508.57-6.56Q508.57-4.42 510.61-4.42L510.61-4.42L510.61-4.42Q511.70-4.42 512.43-5.34L512.43-5.34L512.43-5.34Q513.16-6.26 513.43-7.79L513.43-7.79L519.08-7.79L519.08-7.79Q517.65 0.48 509.52 0.48ZM535.47-6.97L535.47-6.97L535.47-6.97Q535.47-4.62 538.85-4.62L538.85-4.62L538.85-4.62Q542.23-4.62 542.23-6.73L542.23-6.73L542.23-6.73Q542.23-7.85 541.08-8.57L541.08-8.57L541.08-8.57Q539.92-9.28 538.27-9.76L538.27-9.76L538.27-9.76Q536.62-10.23 534.97-10.86L534.97-10.86L534.97-10.86Q533.32-11.49 532.17-12.84L532.17-12.84L532.17-12.84Q531.01-14.18 531.01-16.18L531.01-16.18L531.01-16.18Q531.01-24.72 541.99-24.72L541.99-24.72L541.99-24.72Q546.01-24.72 548.06-23.21L548.06-23.21L548.06-23.21Q550.12-21.69 550.12-19.01L550.12-19.01L550.12-19.01Q550.12-18.02 549.87-17.12L549.87-17.12L549.87-17.12Q549.61-16.22 549.34-15.84L549.34-15.84L549.07-15.44L543.05-15.44L543.05-15.44Q543.80-16.22 543.80-17.41L543.80-17.41L543.80-17.41Q543.80-19.62 540.91-19.62L540.91-19.62L540.91-19.62Q537.27-19.62 537.27-17.31L537.27-17.31L537.27-17.31Q537.27-16.15 538.42-15.47L538.42-15.47L538.42-15.47Q539.58-14.79 541.23-14.40L541.23-14.40L541.23-14.40Q542.88-14.01 544.54-13.43L544.54-13.43L544.54-13.43Q546.21-12.85 547.37-11.51L547.37-11.51L547.37-11.51Q548.52-10.17 548.52-8.02L548.52-8.02L548.52-8.02Q548.52-3.71 545.94-1.62L545.94-1.62L545.94-1.62Q543.35 0.48 537.98 0.48L537.98 0.48L537.98 0.48Q532.61 0.48 530.64-1.43L530.64-1.43L530.64-1.43Q529.18-2.86 529.18-5.37L529.18-5.37L529.18-5.37Q529.18-6.32 529.38-7.45L529.38-7.45L529.48-7.99L535.60-7.99L535.53-7.58L535.53-7.58Q535.47-7.24 535.47-6.97ZM559.20-16.35L557.60-7.31L557.60-7.31Q557.50-6.70 557.50-6.09L557.50-6.09L557.50-6.09Q557.50-4.45 559.33-4.45L559.33-4.45L559.33-4.45Q560.83-4.45 561.82-5.51L561.82-5.51L563.72-16.35L569.50-16.35L566.51 0.54L566.51 0.54Q565.76 4.86 563.09 7.38L563.09 7.38L563.09 7.38Q560.42 9.89 556.99 9.89L556.99 9.89L556.99 9.89Q553.55 9.89 552.04 8.64L552.04 8.64L552.04 8.64Q550.53 7.38 550.53 5.34L550.53 5.34L550.53 5.34Q550.53 2.45 554.10 0.20L554.10 0.20L554.10 0.20Q552.16-0.27 551.65-1.73L551.65-1.73L551.65-1.73Q551.34-2.55 551.34-3.57L551.34-3.57L551.34-3.57Q551.34-4.59 551.51-5.64L551.51-5.64L553.42-16.35L559.20-16.35ZM557.77 5.03L557.77 5.03L557.77 5.03Q559.98 5.03 560.66 1.02L560.66 1.02L561.00-0.95L561.00-0.95Q556.27 1.26 556.27 3.50L556.27 3.50L556.27 3.50Q556.27 4.18 556.67 4.61L556.67 4.61L556.67 4.61Q557.06 5.03 557.77 5.03ZM587.49-12.82L587.49-12.82L587.49-12.82Q587.49-11.70 586.81-10.74L586.81-10.74L581.23-10.74L581.23-10.74Q581.50-10.95 581.50-11.42L581.50-11.42L581.50-11.42Q581.50-11.90 580.96-12.19L580.96-12.19L580.96-12.19Q580.41-12.48 579.56-12.48L579.56-12.48L579.56-12.48Q577.01-12.48 577.01-10.91L577.01-10.91L577.01-10.91Q577.01-10.30 577.97-10.03L577.97-10.03L577.97-10.03Q578.92-9.76 580.28-9.59L580.28-9.59L580.28-9.59Q581.64-9.42 583.00-9.10L583.00-9.10L583.00-9.10Q584.36-8.77 585.31-7.82L585.31-7.82L585.31-7.82Q586.26-6.87 586.26-5.27L586.26-5.27L586.26-5.27Q586.26-2.45 584.00-0.99L584.00-0.99L584.00-0.99Q581.74 0.48 577.42 0.48L577.42 0.48L577.42 0.48Q573.10 0.48 571.37-0.92L571.37-0.92L571.37-0.92Q570.01-2.01 570.01-3.91L570.01-3.91L570.01-3.91Q570.01-4.45 570.11-5.03L570.11-5.03L575.79-5.10L575.79-5.10Q575.72-4.62 576.35-4.27L576.35-4.27L576.35-4.27Q576.98-3.91 578.20-3.91L578.20-3.91L578.20-3.91Q579.43-3.91 579.97-4.17L579.97-4.17L579.97-4.17Q580.52-4.42 580.52-5.13L580.52-5.13L580.52-5.13Q580.52-5.61 579.56-5.80L579.56-5.80L579.56-5.80Q578.61-5.98 577.24-6.12L577.24-6.12L577.24-6.12Q575.86-6.26 574.48-6.56L574.48-6.56L574.48-6.56Q573.10-6.87 572.15-7.85L572.15-7.85L572.15-7.85Q571.20-8.84 571.20-10.44L571.20-10.44L571.20-10.44Q571.20-13.53 573.60-15.20L573.60-15.20L573.60-15.20Q575.99-16.86 580.52-16.86L580.52-16.86L580.52-16.86Q587.49-16.86 587.49-12.82ZM596.43 0.48L596.43 0.48L596.43 0.48Q592.48 0.48 590.75-1.29L590.75-1.29L590.75-1.29Q589.46-2.58 589.46-4.76L589.46-4.76L589.46-4.76Q589.46-5.47 589.59-6.29L589.59-6.29L591.91-19.45L598.13-22.03L597.14-16.35L606.53-16.35L605.68-11.56L596.29-11.56L595.61-7.72L595.61-7.72Q595.48-7.07 595.48-6.56L595.48-6.56L595.48-6.56Q595.48-4.42 597.52-4.42L597.52-4.42L597.52-4.42Q598.60-4.42 599.34-5.34L599.34-5.34L599.34-5.34Q600.07-6.26 600.34-7.79L600.34-7.79L605.98-7.79L605.98-7.79Q604.55 0.48 596.43 0.48ZM614.69 0.48L614.69 0.48L614.69 0.48Q607.61 0.48 607.61-4.42L607.61-4.42L607.61-4.42Q607.61-5.10 607.75-5.88L607.75-5.88L608.46-10.10L608.46-10.10Q609.04-13.36 611.47-15.11L611.47-15.11L611.47-15.11Q613.90-16.86 617.92-16.86L617.92-16.86L617.92-16.86Q624.75-16.86 624.75-11.70L624.75-11.70L624.75-11.70Q624.75-10.95 624.61-10.06L624.61-10.06L624.21-7.65L613.84-7.65L613.70-6.87L613.70-6.87Q613.63-6.46 613.63-6.12L613.63-6.12L613.63-6.12Q613.63-4.25 615.84-4.25L615.84-4.25L615.84-4.25Q616.66-4.25 617.24-4.76L617.24-4.76L617.24-4.76Q617.81-5.27 617.92-5.95L617.92-5.95L623.56-5.88L623.56-5.88Q622.44 0.48 614.69 0.48ZM614.18-9.72L618.77-9.72L618.77-9.72Q618.90-10.30 618.90-10.79L618.90-10.79L618.90-10.79Q618.90-11.29 618.46-11.80L618.46-11.80L618.46-11.80Q618.02-12.31 617.05-12.31L617.05-12.31L617.05-12.31Q616.08-12.31 615.28-11.66L615.28-11.66L615.28-11.66Q614.48-11.02 614.18-9.72L614.18-9.72ZM654.74-4.35L654.74-4.35L654.74-4.35Q655.52-4.35 656.13-4.69L656.13-4.69L655.96-0.85L655.96-0.85Q654.36 0.48 652.32 0.48L652.32 0.48L652.32 0.48Q647.70 0.48 647.70-3.40L647.70-3.40L647.70-3.40Q647.70-4.08 647.84-4.86L647.84-4.86L648.55-9.04L648.55-9.04Q648.65-9.66 648.65-10.27L648.65-10.27L648.65-10.27Q648.65-11.90 646.87-11.90L646.87-11.90L646.87-11.90Q645.08-11.90 644.06-10.51L644.06-10.51L642.23 0L636.45 0L638.04-9.04L638.04-9.04Q638.15-9.66 638.15-10.27L638.15-10.27L638.15-10.27Q638.15-11.90 636.31-11.90L636.31-11.90L636.31-11.90Q634.85-11.90 633.79-10.78L633.79-10.78L631.89 0L626.11 0L629.00-16.35L634.37-16.35L634.00-14.31L634.00-14.31Q636.04-16.83 639.17-16.83L639.17-16.83L639.17-16.83Q643.59-16.83 644.20-13.91L644.20-13.91L644.20-13.91Q646.24-16.83 649.66-16.83L649.66-16.83L649.66-16.83Q653.07-16.83 654.09-15.30L654.09-15.30L654.09-15.30Q654.77-14.25 654.77-12.99L654.77-12.99L654.77-12.99Q654.77-11.73 654.60-10.71L654.60-10.71L653.75-5.64L653.75-5.64Q653.72-5.44 653.72-5.27L653.72-5.27L653.72-5.27Q653.72-4.35 654.74-4.35Z" fill="#ccc"></path></g></g><style>text {
  font-size: 64px;
  font-family: Arial Black;
  dominant-baseline: central;
  text-anchor: middle;
}</style></svg>